<?xml version="1.0" encoding="UTF-8" standalone="no"?>
<!-- Created with Inkscape (http://www.inkscape.org/) -->
<svg
   xmlns:svg="http://www.w3.org/2000/svg"
   xmlns="http://www.w3.org/2000/svg"
   version="1.0"
   width="814.96063"
   height="232.08661"
   id="svg2453">
  <defs
     id="defs2455"><clipPath
   id="clp9">
<path
   d="M 0,183.78 L 0,0 L 221.69,0 L 221.69,183.78"
   id="path2797" />

</clipPath>
<clipPath
   id="clp8">
<path
   d="M 0,183.78 L 0,0 L 221.69,0 L 221.69,183.78"
   id="path2787" />

</clipPath>















<clipPath
   id="clipPath3264">
<path
   d="M 0,183.78 L 0,0 L 221.69,0 L 221.69,183.78"
   id="path3266" />

</clipPath>



<clipPath
   id="clipPath3256">
<path
   d="M 0,183.78 L 0,0 L 221.69,0 L 221.69,183.78"
   id="path3258" />

</clipPath>






</defs>
  <g
     transform="translate(-235.16325,84.308588)"
     id="layer1">
    <g
       transform="matrix(1.2068779,0,0,1.2068779,-30.933546,-5.4667704)"
       id="g9569">
      <path
         d="M 340.80651,-5.4378441 L 246.35334,-5.4378441 L 235.16325,5.7949552 L 235.31589,5.7949552 L 235.16325,5.7949552 L 235.16938,55.060545 C 235.16938,83.753009 257.0428,107.50061 285.47277,111.04139 L 296.13173,100.17489 L 292.87177,100.17489 C 267.3721,100.17489 246.71352,79.907007 246.71352,55.060545 L 246.71352,5.7949552 L 258.28207,5.7949552 L 258.25154,55.060545 C 258.25154,73.680129 273.74548,88.819989 292.87177,88.819989 L 307.36452,88.819989 L 318.50575,77.58719 L 292.87177,77.58719 C 280.12498,77.58719 269.84454,67.453252 269.84454,55.060545 L 269.84454,5.7949552 L 281.291,5.7949552 L 281.3093,55.060545 C 281.33983,61.226375 286.49226,66.293342 292.87177,66.293342 L 329.64088,66.293342 L 340.76988,55.060545 L 292.87177,55.060545 L 292.87177,5.7949552 L 340.80651,5.7949552 L 340.80651,111.46873 L 352.37508,111.46873 L 352.36898,5.7949552 C 352.33235,-0.43192227 347.17991,-5.4378441 340.80651,-5.4378441 M 398.5089,111.46873 L 398.5028,5.7949552 C 398.5028,-25.278386 372.66738,-50.613229 340.80651,-50.613229 L 290.97319,-50.613229 L 279.81363,-39.319384 L 340.80651,-39.319384 C 366.28177,-39.319384 386.94646,-19.051509 386.94646,5.7949552 L 386.94646,111.46873 L 398.5089,111.46873 z M 340.80651,-27.964488 L 268.6541,-28.025537 L 257.49454,-16.792737 L 340.80651,-16.731692 C 353.54109,-16.731692 363.82764,-6.5977515 363.82764,5.7949552 L 363.82764,111.46873 L 375.37788,111.46873 L 375.41451,5.7949552 C 375.41451,-12.824631 359.91447,-27.964488 340.80651,-27.964488"
         style="fill:#0e91c8;fill-opacity:1;fill-rule:nonzero;stroke:none"
         id="path6850" />
      <path
         d="M 725.57871,90.834555 L 735.71265,68.185826 L 745.84658,90.834555 L 725.57871,90.834555 z M 739.43655,58.601318 L 739.13132,57.990841 L 738.52084,57.990841 L 733.08758,57.990841 L 732.47712,57.990841 L 732.23292,58.601318 L 708.87603,110.12568 L 708.24112,111.52977 L 709.77952,111.52977 L 715.68895,111.52977 L 716.36049,111.52977 L 716.60466,110.98034 L 722.40421,98.038212 L 748.96003,98.038212 L 754.69852,110.98034 L 755.00375,111.52977 L 755.61424,111.52977 L 761.8411,111.52977 L 763.36729,111.52977 L 762.75684,110.12568 L 739.43655,58.601318 z M 541.97129,58.357128 L 540.98843,58.357128 L 540.98843,59.394939 L 540.98843,64.706099 L 540.98843,65.682864 L 541.97129,65.682864 L 558.17338,65.682864 L 558.17338,110.55302 L 558.17338,111.52977 L 559.15625,111.52977 L 565.02295,111.52977 L 566.02412,111.52977 L 566.02412,110.55302 L 566.02412,65.682864 L 582.21401,65.682864 L 583.20298,65.682864 L 583.20298,64.706099 L 583.20298,59.394939 L 583.20298,58.357128 L 582.21401,58.357128 L 541.97129,58.357128 z M 587.15277,-18.441029 L 603.50747,-18.441029 C 614.59377,-18.441029 620.95495,-13.374061 620.95495,-4.5221273 L 620.95495,-4.3389824 C 620.95495,4.2077123 613.95276,9.7630637 603.11679,9.7630637 L 587.15277,9.7630637 L 587.15277,-18.441029 z M 630.77756,-4.6442214 L 630.77756,-4.8273662 C 630.77756,-18.624173 620.30174,-27.598204 604.09966,-27.598204 L 578.41682,-27.598204 L 577.42175,-27.598204 L 577.42175,-26.621436 L 577.42175,42.057358 L 577.42175,43.034123 L 578.41682,43.034123 L 586.15771,43.034123 L 587.15277,43.034123 L 587.15277,42.057358 L 587.15277,18.79814 L 602.82376,18.79814 C 616.73655,18.79814 630.77756,11.533449 630.77756,-4.6442214 M 694.24287,58.357128 L 693.24778,58.357128 L 693.24778,59.394939 L 693.24778,110.55302 L 693.24778,111.52977 L 694.24287,111.52977 L 700.01187,111.52977 L 701.01306,111.52977 L 701.01306,110.55302 L 701.01306,59.394939 L 701.01306,58.357128 L 700.01187,58.357128 L 694.24287,58.357128 z M 598.84953,104.32613 L 598.84953,88.392648 L 625.78383,88.392648 L 626.78503,88.392648 L 626.78503,87.35485 L 626.78503,82.104728 L 626.78503,81.127963 L 625.78383,81.127963 L 598.84953,81.127963 L 598.84953,65.621816 L 629.08042,65.621816 L 630.06939,65.621816 L 630.06939,64.645051 L 630.06939,59.394939 L 630.06939,58.357128 L 629.08042,58.357128 L 592.07934,58.357128 L 591.09035,58.357128 L 591.09035,59.394939 L 591.09035,110.55302 L 591.09035,111.52977 L 592.07934,111.52977 L 629.45281,111.52977 L 630.43568,111.52977 L 630.43568,110.55302 L 630.43568,105.3029 L 630.43568,104.32613 L 629.45281,104.32613 L 598.84953,104.32613 z M 647.91978,84.485603 L 647.91978,65.682864 L 662.72998,65.682864 C 670.42199,65.682864 674.82966,69.040495 674.82966,74.778991 L 674.82966,74.962133 C 674.82966,80.761675 670.0557,84.485603 662.65673,84.485603 L 647.91978,84.485603 z M 669.46355,90.224097 C 677.72943,88.209506 682.6621,82.532068 682.6621,74.717943 L 682.6621,74.595846 C 682.6621,70.322499 681.15421,66.537535 678.41927,63.790382 C 674.93344,60.310658 669.51238,58.357128 663.16343,58.357128 L 641.14957,58.357128 L 640.1667,58.357128 L 640.1667,59.394939 L 640.1667,110.55302 L 640.1667,111.52977 L 641.14957,111.52977 L 646.93079,111.52977 L 647.91978,111.52977 L 647.91978,110.55302 L 647.91978,91.62818 L 661.05728,91.62818 L 675.61106,111.16348 L 675.91021,111.52977 L 676.40468,111.52977 L 683.49845,111.52977 L 685.48249,111.52977 L 684.28595,109.94254 L 669.46355,90.224097 z M 681.17863,43.034123 L 681.17863,42.057358 L 681.17863,34.853716 L 681.17863,33.876951 L 680.19576,33.876951 L 650.15412,33.876951 L 650.15412,-26.621436 L 650.15412,-27.598204 L 649.17125,-27.598204 L 641.42429,-27.598204 L 640.4292,-27.598204 L 640.4292,-26.621436 L 640.4292,42.057358 L 640.4292,43.034123 L 641.42429,43.034123 L 680.19576,43.034123 L 681.17863,43.034123 z M 511.4718,90.834555 L 521.63627,68.185826 L 531.73967,90.834555 L 511.4718,90.834555 z M 525.32964,58.601318 L 525.06104,57.990841 L 524.42613,57.990841 L 519.00509,57.990841 L 518.37021,57.990841 L 518.10768,58.601318 L 494.77522,110.12568 L 494.14641,111.52977 L 495.68483,111.52977 L 501.60037,111.52977 L 502.23525,111.52977 L 502.50388,110.98034 L 508.3095,98.038212 L 534.89585,98.038212 L 540.62824,110.98034 L 540.89074,111.52977 L 541.52563,111.52977 L 547.74642,111.52977 L 549.28481,111.52977 L 548.64993,110.12568 L 525.32964,58.601318 z M 790.89988,-18.441029 L 805.97868,-18.441029 C 822.15636,-18.441029 833.45021,-7.6966131 833.45021,7.7484853 L 833.45021,7.9316276 C 833.45021,23.193584 822.15636,33.876951 805.97868,33.876951 L 790.89988,33.876951 L 790.89988,-18.441029 z M 805.97868,43.034123 C 827.71172,43.034123 843.46203,28.199503 843.46203,7.7484853 L 843.46203,7.5042946 C 843.46203,-12.824631 827.71172,-27.598204 805.97868,-27.598204 L 782.17003,-27.598204 L 781.19326,-27.598204 L 781.19326,-26.621436 L 781.19326,42.057358 L 781.19326,43.034123 L 782.17003,43.034123 L 805.97868,43.034123 z M 826.42969,81.189011 C 815.31899,78.808145 813.30443,76.305186 813.30443,72.214981 L 813.30443,72.092887 C 813.30443,67.819539 817.39461,64.828196 823.19416,64.828196 C 828.38323,64.828196 832.90076,66.537535 837.35725,70.139357 L 838.15088,70.810883 L 838.76136,70.01726 L 842.11898,65.499722 L 842.72946,64.767148 L 841.93584,64.15667 C 836.2584,59.578083 830.70305,57.624553 823.37731,57.624553 C 813.06023,57.624553 805.55134,63.973525 805.55134,72.581268 L 805.55134,72.764413 C 805.55134,82.593099 812.69394,86.133884 823.49942,88.51476 C 834.06067,90.712468 836.0142,93.21543 836.0142,97.244587 L 836.0142,97.366674 C 836.0142,102.00631 831.86296,105.11976 825.63607,105.11976 C 819.10395,105.11976 814.22014,103.10517 808.72584,98.099268 L 807.99325,97.427729 L 807.32173,98.221355 L 803.71992,102.49471 L 803.10944,103.16622 L 803.842,103.83776 C 810.25204,109.57626 817.15044,112.26236 825.3919,112.26236 C 836.2584,112.26236 843.88937,105.91338 843.88937,96.817247 L 843.88937,96.634104 C 843.88937,88.51476 838.63928,83.87512 826.42969,81.189011 M 701.93487,43.034123 L 701.93487,42.057358 L 701.93487,-26.621436 L 701.93487,-27.598204 L 700.95811,-27.598204 L 693.20505,-27.598204 L 692.20998,-27.598204 L 692.20998,-26.621436 L 692.20998,42.057358 L 692.20998,43.034123 L 693.20505,43.034123 L 700.95811,43.034123 L 701.93487,43.034123 z M 523.8523,-18.441029 L 540.2192,-18.441029 C 551.3055,-18.441029 557.66058,-13.374061 557.66058,-4.5221273 L 557.66058,-4.3389824 C 557.66058,4.2077123 550.66449,9.7630637 539.82239,9.7630637 L 523.8523,9.7630637 L 523.8523,-18.441029 z M 522.86943,43.034123 L 523.8523,43.034123 L 523.8523,42.057358 L 523.8523,18.79814 L 539.53549,18.79814 C 553.44828,18.79814 567.48316,11.533449 567.48316,-4.6442214 L 567.48316,-4.8273662 C 567.48316,-18.624173 557.01347,-27.598204 540.80526,-27.598204 L 515.12245,-27.598204 L 514.13348,-27.598204 L 514.13348,-26.621436 L 514.13348,42.057358 L 514.13348,43.034123 L 515.12245,43.034123 L 522.86943,43.034123 z M 468.56129,-15.63283 L 482.6267,15.928893 L 454.3982,15.928893 L 468.56129,-15.63283 z M 442.33513,43.034123 L 442.59765,42.423646 L 450.4667,24.902923 L 486.53987,24.902923 L 494.31735,42.423646 L 494.57985,43.034123 L 495.22696,43.034123 L 503.5539,43.034123 L 505.0862,43.034123 L 504.45129,41.630025 L 473.1826,-27.476107 L 472.9262,-28.086585 L 472.28519,-28.086585 L 465.03273,-28.086585 L 464.39172,-28.086585 L 464.12922,-27.476107 L 432.8483,41.630025 L 432.21342,43.034123 L 433.75792,43.034123 L 441.69414,43.034123 L 442.33513,43.034123 z M 778.07984,104.26508 L 778.07984,59.394939 L 778.07984,58.357128 L 777.10307,58.357128 L 771.36458,58.357128 L 770.38781,58.357128 L 770.38781,59.394939 L 770.38781,110.55302 L 770.38781,111.52977 L 771.36458,111.52977 L 797.30989,111.52977 L 798.28665,111.52977 L 798.28665,110.55302 L 798.28665,105.24184 L 798.28665,104.26508 L 797.30989,104.26508 L 778.07984,104.26508 z M 480.3191,58.357128 L 479.78798,58.357128 L 479.50105,58.845509 L 461.66899,85.523402 L 443.84912,58.845509 L 443.54999,58.357128 L 443.02497,58.357128 L 437.17049,58.357128 L 436.18152,58.357128 L 436.18152,59.394939 L 436.18152,110.55302 L 436.18152,111.52977 L 437.17049,111.52977 L 442.8052,111.52977 L 443.79419,111.52977 L 443.79419,110.55302 L 443.79419,72.398126 L 460.63726,97.061445 L 460.92419,97.488785 L 461.45532,97.488785 L 461.74834,97.488785 L 462.26724,97.488785 L 462.56027,97.061445 L 479.40337,72.337077 L 479.40337,110.55302 L 479.40337,111.52977 L 480.39236,111.52977 L 486.17358,111.52977 L 487.16255,111.52977 L 487.16255,110.55302 L 487.16255,59.394939 L 487.16255,58.357128 L 486.17358,58.357128 L 480.3191,58.357128 z M 726.86071,33.999047 L 726.86071,11.960784 L 763.30626,11.960784 L 764.34406,11.960784 L 764.34406,10.984019 L 764.34406,3.9024734 L 764.34406,2.9257058 L 763.30626,2.9257058 L 726.86071,2.9257058 L 726.86071,-18.563125 L 767.76274,-18.563125 L 768.7395,-18.563125 L 768.7395,-19.53989 L 768.7395,-26.621436 L 768.7395,-27.598204 L 767.76274,-27.598204 L 718.13086,-27.598204 L 717.15412,-27.598204 L 717.15412,-26.621436 L 717.15412,42.057358 L 717.15412,43.034123 L 718.13086,43.034123 L 768.25113,43.034123 L 769.2279,43.034123 L 769.2279,42.057358 L 769.2279,34.975812 L 769.2279,33.999047 L 768.25113,33.999047 L 726.86071,33.999047 z "
         style="fill:#0e91c8;fill-opacity:1;fill-rule:nonzero;stroke:none"
         id="path6852" />
      <path
         d="M 869.28528,99.320209 C 871.1167,99.320209 872.33767,98.526584 872.33767,97.061445 L 872.33767,97.000389 C 872.33767,95.657337 871.23879,94.802681 869.40737,94.802681 L 865.68344,94.802681 L 865.68344,99.320209 L 869.28528,99.320209 z M 863.79096,93.093344 L 869.46842,93.093344 C 871.1167,93.093344 872.3987,93.642771 873.25338,94.436396 C 873.86386,95.046854 874.29118,95.901535 874.29118,96.878302 L 874.29118,97.000389 C 874.29118,99.01498 872.8871,100.23592 870.99462,100.72432 L 874.96272,105.79127 L 872.58184,105.79127 L 868.919,101.02955 L 868.85794,101.02955 L 865.68344,101.02955 L 865.68344,105.79127 L 863.79096,105.79127 L 863.79096,93.093344 z M 879.96864,99.808605 L 879.96864,99.747549 C 879.96864,93.581715 875.0848,88.51476 868.6748,88.51476 C 862.26476,88.51476 857.38095,93.642771 857.38095,99.808605 L 857.38095,99.869636 C 857.38095,106.09653 862.20373,111.16348 868.61374,111.16348 C 875.0848,111.16348 879.96864,106.03547 879.96864,99.808605 M 856.28207,99.869636 L 856.28207,99.808605 C 856.28207,93.093344 861.71534,87.415881 868.6748,87.415881 C 875.63423,87.415881 881.0675,92.971232 881.0675,99.747549 L 881.0675,99.808605 C 881.0675,106.5849 875.5732,112.2013 868.61374,112.2013 C 861.65428,112.2013 856.28207,106.64595 856.28207,99.869636"
         style="fill:#0e91c8;fill-opacity:1;fill-rule:nonzero;stroke:none"
         id="path6854" />
    </g>
  </g>
</svg>
